Coordinates
version=1
nRows=29
nColumns=18
inDegrees=yes

Units are S.I. units (second, meters, Newtons, ...)
If the header above contains a line with 'inDegrees', this indicates whether rotational values are in degrees (yes) or radians (no).

endheader
time	ground_thorax_rot_x	ground_thorax_rot_y	ground_thorax_rot_z	ground_thorax_tx	ground_thorax_ty	ground_thorax_tz	clav_prot	clav_elev	scapula_abduction	scapula_elevation	scapula_upward_rot	scapula_winging	plane_elv	shoulder_elv	axial_rot	elbow_flexion	pro_sup
      5.90000000	      0.42260647	     -2.48477654	     -8.63569920	      0.00000000	      0.00000000	      0.00000000	    -35.69425061	     -0.24696371	    -29.24837987	     -4.33771967	     22.99071854	     -0.64808253	     -4.75478408	     31.89217328	    -10.87939044	      0.00000000	     34.32000000
      5.91000000	      0.60417277	     -2.56014158	     -8.63769025	      0.00000000	      0.00000000	      0.00000000	    -35.66213442	     -0.23297425	    -29.27637222	     -4.30039350	     22.87982243	     -0.61331838	     -4.79427054	     31.70893396	    -10.89643571	      0.00000000	     34.32000000
      5.92000000	      0.30036419	     -2.55302782	     -8.56314657	      0.00000000	      0.00000000	      0.00000000	    -35.52870903	     -0.15353352	    -29.24905861	     -4.17910786	     22.64355796	     -0.53324793	     -6.14444020	     30.87909635	    -10.93740341	      0.00000000	     34.32000000
      5.93000000	      0.35973835	     -2.72555520	     -8.67849534	      0.00000000	      0.00000000	      0.00000000	    -35.34252211	      0.04712499	    -29.22511170	     -3.94811483	     22.33614322	     -0.45527443	     -6.17563068	     30.35912357	    -11.03707471	      0.00000000	     34.32000000
      5.94000000	      0.36025838	     -2.92964257	     -8.67609913	      0.00000000	      0.00000000	      0.00000000	    -35.00432734	      0.11981419	    -28.95408156	     -3.78628174	     21.97536759	     -0.26684607	     -7.17492927	     29.89679058	    -10.72722790	      0.00000000	     34.32000000
      5.95000000	      0.47801166	     -3.01375695	     -8.73004005	      0.00000000	      0.00000000	      0.00000000	    -34.69790625	     -0.03451756	    -28.60394298	     -3.81139524	     21.69295197	     -0.03979866	     -8.61175554	     29.55717150	    -10.12253954	      0.00000000	     34.32000000
      5.96000000	      0.68395765	     -2.99064891	     -8.78628587	      0.00000000	      0.00000000	      0.00000000	    -34.33079664	     -0.40514018	    -28.14874041	     -3.96913830	     21.31385555	      0.29988940	    -10.45201227	     29.72271249	    -10.01946688	      0.00000000	     34.32000000
      5.97000000	      0.74215618	     -3.13348099	     -8.76978918	      0.00000000	      0.00000000	      0.00000000	    -33.87064531	     -0.63847827	    -27.50173804	     -4.04842860	     21.06543057	      0.58792581	    -12.39884765	     29.61976643	     -9.29663003	      0.00000000	     34.32000000
      5.98000000	      0.85887870	     -3.35875083	     -8.85272552	      0.00000000	      0.00000000	      0.00000000	    -33.42973969	     -0.77362690	    -27.03902331	     -4.01228873	     20.62426936	      0.88022876	    -13.08606592	     29.60370557	     -8.53460125	      0.00000000	     34.32000000
      5.99000000	      1.19955916	     -3.33958690	     -8.98424601	      0.00000000	      0.00000000	      0.00000000	    -33.32760913	     -0.75784496	    -27.00293601	     -3.94832056	     20.43412377	      0.95395412	    -13.13681349	     29.47832359	     -8.52972229	      0.00000000	     34.32000000
      6.00000000	      1.24795152	     -3.41867899	     -9.03728325	      0.00000000	      0.00000000	      0.00000000	    -32.75360765	     -0.94859394	    -26.40435325	     -3.90458662	     19.83291305	      1.33576304	    -14.09516751	     29.75358550	     -7.41831930	      0.00000000	     34.32000000
      6.01000000	      1.58603360	     -3.49659666	     -9.09700530	      0.00000000	      0.00000000	      0.00000000	    -32.30972466	     -0.88986686	    -25.81703684	     -3.78513012	     19.65673966	      1.48560027	    -14.63044993	     29.85450028	     -7.03779482	      0.00000000	     34.32000000
      6.02000000	      1.28232260	     -3.76205218	     -9.06685011	      0.00000000	      0.00000000	      0.00000000	    -31.65432894	     -1.22531884	    -25.04696280	     -3.83478697	     19.02475216	      1.92396554	    -16.02847000	     29.71787475	     -6.28290316	      0.00000000	     34.32000000
      6.03000000	      1.39292092	     -3.88451194	     -9.17489591	      0.00000000	      0.00000000	      0.00000000	    -31.38586217	     -1.40371741	    -24.85134505	     -3.83437376	     18.55293034	      2.16719190	    -16.16132434	     29.42572137	     -5.40930543	      0.00000000	     34.32000000
      6.04000000	      1.49481051	     -4.14195496	     -9.21370103	      0.00000000	      0.00000000	      0.00000000	    -31.03345722	     -1.49565907	    -24.41047196	     -3.81323959	     18.29045822	      2.34698301	    -16.70769462	     28.87958719	     -5.17139423	      0.00000000	     34.32000000
      6.05000000	      1.66097588	     -4.23352385	     -9.22877089	      0.00000000	      0.00000000	      0.00000000	    -30.78205919	     -1.59538048	    -24.14874492	     -3.79859474	     18.00016403	      2.51001469	    -17.14265923	     28.45535164	     -4.80975168	      0.00000000	     34.32000000
      6.06000000	      1.77344755	     -4.30085916	     -9.26929726	      0.00000000	      0.00000000	      0.00000000	    -30.55378156	     -1.75280224	    -23.89251891	     -3.83408858	     17.73132681	      2.67874694	    -17.64351888	     28.10664433	     -4.40685585	      0.00000000	     34.32000000
      6.07000000	      2.01766669	     -4.27647950	     -9.25390049	      0.00000000	      0.00000000	      0.00000000	    -30.49468136	     -1.79705836	    -23.86947001	     -3.82829987	     17.59013163	      2.74138828	    -17.67511853	     27.94336779	     -4.39082633	      0.00000000	     34.32000000
      6.08000000	      1.90354596	     -4.44062333	     -9.38737912	      0.00000000	      0.00000000	      0.00000000	    -30.15900883	     -2.02533960	    -23.36388891	     -3.92856284	     17.40002648	      2.93272657	    -18.53762983	     27.43565345	     -3.97216178	      0.00000000	     34.32000000
      6.09000000	      1.56935993	     -4.61451677	     -9.36838256	      0.00000000	      0.00000000	      0.00000000	    -29.69691505	     -2.44197818	    -22.93309217	     -4.02468553	     16.65629500	      3.34629402	    -18.99958122	     27.41219748	     -3.35935059	      0.00000000	     34.32000000
      6.10000000	      1.67101244	     -4.60656325	     -9.47030465	      0.00000000	      0.00000000	      0.00000000	    -29.65038499	     -2.41458514	    -23.02597951	     -3.93466712	     16.39226942	      3.41339740	    -18.65426028	     26.84124255	     -2.45946259	      0.00000000	     34.32000000
      6.11000000	      1.62863426	     -4.72424611	     -9.53397076	      0.00000000	      0.00000000	      0.00000000	    -29.54171789	     -2.45625715	    -23.01044919	     -3.88541587	     16.10202255	      3.52096506	    -18.45129169	     26.23567001	     -1.70557771	      0.00000000	     34.32000000
      6.12000000	      1.61968510	     -4.99410647	     -9.57198969	      0.00000000	      0.00000000	      0.00000000	    -29.30909479	     -2.50850580	    -22.60412964	     -3.90987564	     16.10872297	      3.57817626	    -19.03550884	     25.58629327	     -1.37931945	      0.00000000	     34.32000000
      6.13000000	      1.82935881	     -5.05325954	     -9.51131530	      0.00000000	      0.00000000	      0.00000000	    -29.28765470	     -2.54269631	    -22.62196532	     -3.90780928	     16.00389095	      3.61911614	    -19.06442823	     25.39150312	     -1.36341762	      0.00000000	     34.32000000
      6.14000000	      1.67134366	     -5.18387159	     -9.56017668	      0.00000000	      0.00000000	      0.00000000	    -29.17039803	     -2.68076675	    -22.35931562	     -4.01495696	     16.04782881	      3.67273710	    -20.46436171	     24.52511960	     -1.00284773	      0.00000000	     34.32000000
      6.15000000	      1.75355740	     -5.30080271	     -9.54169046	      0.00000000	      0.00000000	      0.00000000	    -29.04872890	     -2.70253774	    -22.19688776	     -4.00335689	     15.97093997	      3.72011890	    -20.82048440	     24.15326526	     -0.57049438	      0.00000000	     34.32000000
      6.16000000	      1.91944156	     -5.28011384	     -9.51157200	      0.00000000	      0.00000000	      0.00000000	    -29.03108241	     -2.72384643	    -22.21560208	     -3.99570548	     15.88139130	      3.75229855	    -20.84831507	     24.05145955	     -0.54640648	      0.00000000	     34.32000000
      6.17000000	      2.00616939	     -5.18190708	     -9.52802413	      0.00000000	      0.00000000	      0.00000000	    -29.01653541	     -2.65096604	    -22.08808635	     -3.99103071	     16.08597757	      3.67920681	    -22.04952414	     23.53961773	     -0.15598580	      0.00000000	     34.32000000
      6.18000000	      1.34217258	     -4.78027641	     -9.46881746	      0.00000000	      0.00000000	      0.00000000	    -29.32328148	     -3.16892658	    -22.81022138	     -4.25535634	     15.49196933	      3.94882871	    -22.83723650	     22.73443294	      6.82519568	      0.00000000	     34.32000000
